<svg width="113" height="20" viewBox="0 0 113 20" fill="none" xmlns="http://www.w3.org/2000/svg">
<path d="M21.2059 11.3839C20.9896 10.6696 20.637 10.0017 20.1667 9.41531C19.7174 8.86 19.1502 8.40638 18.5043 8.08566C17.8137 7.75208 17.0514 7.5851 16.2811 7.59873C15.3449 7.5801 14.427 7.85381 13.6611 8.38003C12.897 8.9199 12.2888 9.64357 11.8955 10.4808L11.9903 5.21672V4.40482C11.9977 3.7952 11.8887 3.18959 11.6687 2.61904C11.467 2.09796 11.1554 1.62415 10.754 1.22839C10.348 0.835179 9.86363 0.527711 9.33089 0.325094C8.11255 -0.111705 6.77441 -0.108235 5.55847 0.334878C5.01856 0.544883 4.52753 0.859039 4.11471 1.25858C3.32456 2.07076 2.9297 3.11951 2.93013 4.40482V5.23754C2.93013 5.7115 2.92658 6.13091 2.91947 6.49579C2.91237 6.86066 2.90896 7.21248 2.90924 7.55126V9.72384C2.90748 9.85319 2.89357 9.98211 2.86768 10.109C2.83168 10.2729 2.74447 10.4219 2.61811 10.5353C2.46088 10.7004 2.24594 10.8019 2.0158 10.8197C1.76363 10.8466 1.50922 10.8466 1.25705 10.8197C1.00975 10.7945 0.765944 10.7435 0.529844 10.6673C0.301581 10.5934 0.124895 10.5353 0 10.4949V12.5857C0.238409 12.7488 0.501068 12.8752 0.778782 12.9604C1.04035 13.0433 1.30766 13.1078 1.57866 13.1534C1.86671 13.2071 2.15927 13.2343 2.4525 13.2346C2.74103 13.227 3.02888 13.2033 3.31462 13.1634C3.72659 13.1056 4.12251 12.9677 4.47895 12.7579C4.90157 12.5068 5.25456 12.1581 5.50689 11.7426C5.79802 11.2894 5.94359 10.6636 5.94359 9.86519V3.97804C5.93853 3.7889 5.97598 3.60098 6.05331 3.4275C6.13063 3.25402 6.24596 3.09922 6.39117 2.97399C6.6755 2.71501 7.05125 2.5733 7.43999 2.57844C7.83052 2.56914 8.2098 2.70672 8.49946 2.96275C8.6379 3.09065 8.74807 3.24489 8.82318 3.41596C8.89828 3.58703 8.93674 3.7713 8.93617 3.95743C8.93617 4.11982 8.93958 4.24889 8.94661 4.34299C8.95365 4.43708 8.95684 4.5189 8.95684 4.58677V5.2161L8.96558 19.8169H11.8957V17.2398C12.2452 18.0462 12.8172 18.7418 13.5479 19.2492C14.2602 19.7363 15.1777 19.9799 16.3005 19.9801C17.0245 19.9856 17.7398 19.8256 18.3892 19.5129C19.033 19.2024 19.6029 18.7634 20.0623 18.2243C20.5511 17.6442 20.9246 16.9798 21.1633 16.2655C21.4328 15.4668 21.5661 14.6302 21.5578 13.7892C21.5638 12.9748 21.4452 12.1641 21.2059 11.3839ZM18.3468 15.4328C18.1849 15.8729 17.9447 16.2817 17.6373 16.6402C17.3446 16.9816 16.9783 17.2554 16.5646 17.4421C16.1331 17.6349 15.6632 17.732 15.1888 17.7265C14.6936 17.7372 14.2033 17.6292 13.7608 17.4118C13.3558 17.2065 13.0059 16.911 12.7395 16.5491C12.4605 16.168 12.2522 15.742 12.124 15.2906C11.983 14.8019 11.913 14.2963 11.916 13.7886C11.9111 13.2884 11.992 12.791 12.1553 12.3169C12.2999 11.8901 12.5263 11.4941 12.8226 11.1501C13.1077 10.8256 13.4591 10.5628 13.8542 10.3786C14.2711 10.1863 14.7274 10.0892 15.1884 10.0946C15.689 10.0858 16.185 10.19 16.6377 10.399C17.0517 10.5948 17.4176 10.8755 17.7106 11.2219C18.0095 11.5793 18.236 11.9891 18.3779 12.4294C18.5334 12.9085 18.6108 13.4086 18.6072 13.9112C18.6133 14.4295 18.5252 14.9447 18.3468 15.4328Z" fill="#00D481"/>
<path d="M22.3398 19.8391V7.8479H25.3246V19.8391H22.3398Z" fill="#00D481"/>
<path d="M32.9404 10.0967H26.2709V7.86475H36.5225V9.75482L29.7087 17.6574H36.6663V19.8089H26.1066V18.0027L32.9404 10.0967Z" fill="#00D481"/>
<path d="M50.5879 18.2059C50.4581 18.4914 49.3272 19.3262 49.3272 19.3262C49.0909 19.4882 48.8304 19.6137 48.5549 19.6982C48.2958 19.7802 48.031 19.8441 47.7627 19.8895C47.4775 19.9425 47.1879 19.9694 46.8976 19.9699C46.6117 19.9624 46.3266 19.9389 46.0435 19.8993C45.6355 19.8419 45.2434 19.7052 44.8903 19.4973C44.4715 19.2488 44.1218 18.9035 43.8719 18.4918C43.5832 18.0428 43.4389 17.4228 43.4391 16.6317V7.7842C43.4442 7.59685 43.4072 7.41069 43.3308 7.23878C43.2544 7.06687 43.1404 6.91338 42.9968 6.78909C42.7101 6.53834 42.3393 6.39884 41.9545 6.39696C41.5696 6.39508 41.1974 6.53095 40.9081 6.77889C40.7709 6.90557 40.6617 7.05834 40.5873 7.2278C40.5128 7.39725 40.4746 7.5798 40.4751 7.76421C40.4751 7.9252 40.4717 8.05254 40.4648 8.14622C40.4578 8.24011 40.4546 8.32068 40.4546 8.38751V9.01101H42.184V10.8407H40.4346V15.3247C40.4346 16.8128 40.4275 18.3075 40.4133 19.8089H37.4486V10.8407V9.01101V8.20639C37.4411 7.60233 37.5491 7.0022 37.767 6.43685C37.9671 5.92089 38.2757 5.45162 38.6728 5.05932C39.0756 4.6699 39.5558 4.36523 40.0838 4.16414C41.2905 3.73152 42.6159 3.73514 43.8202 4.17434C44.3551 4.38202 44.8415 4.69317 45.2503 5.08909C46.0333 5.89405 46.4245 6.93295 46.4238 8.20576V12.0471C46.4238 12.5166 46.4271 12.9322 46.4338 13.2939C46.4405 13.6556 46.4442 14.0042 46.4451 14.3396V16.4912C46.4471 16.6193 46.4606 16.7471 46.4856 16.873C46.5212 17.0354 46.6077 17.1829 46.733 17.2951C46.8889 17.4586 47.1018 17.5591 47.3298 17.5768C47.8261 17.6287 48.328 17.5772 48.8025 17.4259C49.0282 17.3524 49.2036 17.2951 49.3275 17.2552C49.3272 17.2552 50.7177 17.9205 50.5879 18.2059Z" fill="#00D481"/>
<path d="M48.421 7.86475H51.3446V15.0031C51.3435 15.3079 51.3957 15.6106 51.4989 15.8982C51.6011 16.1859 51.7584 16.452 51.9622 16.6825C52.1771 16.9241 52.4441 17.116 52.7442 17.2445C53.1016 17.3936 53.4877 17.4657 53.8761 17.4558C54.197 17.4576 54.5153 17.3996 54.8139 17.2849C55.1042 17.1737 55.3723 17.0138 55.6061 16.8124C55.8437 16.6059 56.0333 16.3522 56.1622 16.0683C56.3024 15.7582 56.3725 15.4222 56.3678 15.0832V7.86475H59.373V19.8089H56.3872V17.5978C56.3228 17.927 56.1742 18.235 55.9552 18.493C55.711 18.7913 55.4193 19.0492 55.0912 19.257C54.7343 19.4842 54.3459 19.6603 53.9379 19.78C52.9825 20.0685 51.9548 20.0295 51.0251 19.6694C50.518 19.4735 50.0587 19.1756 49.677 18.7951C49.278 18.3906 48.9664 17.912 48.7606 17.3876C48.525 16.7809 48.4097 16.136 48.4208 15.4873L48.421 7.86475Z" fill="#00D481"/>
<path d="M72.1354 13.8569V14.1586C72.1348 14.2528 72.1277 14.3469 72.114 14.4402H63.1388C63.202 15.2993 63.5572 16.1132 64.148 16.7525C64.7111 17.3289 65.4868 17.6171 66.475 17.6171C67.2565 17.6171 67.8809 17.4462 68.3482 17.1043C68.8479 16.7182 69.2319 16.2076 69.4597 15.6263L71.8269 15.9481C71.6718 16.5298 71.4215 17.0832 71.0857 17.5869C70.758 18.074 70.347 18.5025 69.8708 18.8537C69.3676 19.22 68.8035 19.4989 68.2033 19.6779C67.5292 19.8782 66.8277 19.9765 66.1231 19.9693C65.3284 19.9743 64.5397 19.8344 63.7974 19.5569C63.0869 19.2929 62.4416 18.8852 61.9037 18.3605C61.3501 17.8109 60.9157 17.1577 60.6266 16.4402C60.2989 15.617 60.1382 14.7394 60.1533 13.8563C60.1431 13.0006 60.3003 12.1509 60.6166 11.3529C60.8995 10.6349 61.3305 9.98148 61.883 9.43317C62.4354 8.88485 63.0974 8.45341 63.8279 8.16567C64.5831 7.86706 65.3913 7.71681 66.206 7.7235C67.0957 7.70469 67.9795 7.86904 68.7998 8.20585C69.5078 8.50414 70.1403 8.95041 70.6526 9.51323C71.1556 10.0785 71.5339 10.7389 71.7641 11.4533C72.0164 12.2304 72.1417 13.0416 72.1354 13.8569ZM69.4373 12.6305C69.3139 11.8801 68.9627 11.183 68.4292 10.6297C68.1551 10.3616 67.8266 10.1524 67.4649 10.0156C67.1031 9.87887 66.716 9.81751 66.3286 9.83549C65.4232 9.83549 64.7133 10.1002 64.1989 10.6297C63.6705 11.1853 63.3227 11.8817 63.1998 12.6305H69.4373Z" fill="#00D481"/>
<path d="M83.9303 19.8291H81.007V12.711C81.0058 12.4064 80.9537 12.104 80.8527 11.8158C80.7542 11.5214 80.5928 11.2507 80.3793 11.0216C80.1525 10.7842 79.8796 10.5932 79.5767 10.4595C79.217 10.3046 78.8267 10.229 78.4337 10.2382C77.7946 10.241 77.179 10.4737 76.7045 10.8919C76.4685 11.1034 76.2793 11.36 76.1487 11.6457C76.0084 11.956 75.9382 12.2921 75.9428 12.6312V19.8297H72.9163V7.88492H75.9215V10.0968C75.9858 9.76761 76.1344 9.45964 76.3535 9.20167C76.6002 8.90177 76.8959 8.64363 77.2286 8.43764C77.5865 8.21292 77.9742 8.03698 78.3808 7.91469C78.7975 7.78777 79.2314 7.72341 79.6679 7.72379C80.2315 7.72159 80.7904 7.82388 81.315 8.02524C81.8259 8.21962 82.2888 8.51763 82.6731 8.8996C83.0718 9.30419 83.3835 9.7828 83.5895 10.3071C83.8262 10.9205 83.9415 11.5722 83.9293 12.2276L83.9303 19.8291Z" fill="#00D481"/>
<path d="M90.9442 17.7477C91.3313 17.7635 91.7176 17.7011 92.0789 17.5645C92.4402 17.4278 92.7687 17.2198 93.044 16.9535C93.5915 16.4018 93.9635 15.7069 94.115 14.9529L96.5447 15.2144C96.4292 15.8737 96.2178 16.5136 95.9168 17.1144C95.63 17.687 95.2314 18.1993 94.7435 18.6225C94.2355 19.0565 93.649 19.3941 93.0142 19.6178C92.2772 19.8707 91.5 19.9933 90.7189 19.9799C89.8815 19.9905 89.0508 19.8331 88.2782 19.5173C87.5603 19.2214 86.9131 18.7832 86.3775 18.2305C85.8371 17.669 85.4142 17.0098 85.1328 16.2898C84.5388 14.7371 84.5388 13.027 85.1328 11.4742C85.4135 10.7487 85.8401 10.0854 86.3875 9.52355C86.9312 8.97062 87.5802 8.52667 88.298 8.21659C89.0608 7.88951 89.8862 7.72507 90.7192 7.73423C91.4749 7.72494 92.2257 7.85446 92.9325 8.11603C93.5778 8.35885 94.1711 8.71692 94.6821 9.17193C95.1866 9.6259 95.6047 10.1636 95.917 10.7601C96.2432 11.3811 96.4622 12.0504 96.5651 12.741L94.1568 12.9623C94.0604 12.1493 93.6996 11.3881 93.1273 10.7903C92.8415 10.5131 92.4999 10.2967 92.1242 10.1549C91.7484 10.013 91.3467 9.94876 90.9442 9.96614C90.4408 9.95417 89.9411 10.0538 89.4828 10.2576C89.0768 10.4474 88.7211 10.7261 88.4433 11.072C88.1538 11.4367 87.9405 11.8535 87.8157 12.2986C87.6737 12.8029 87.6043 13.3241 87.6096 13.847C87.6052 14.368 87.6815 14.8866 87.8359 15.3853C87.973 15.8347 88.1967 16.2544 88.4949 16.6219C88.7796 16.9678 89.1378 17.249 89.5448 17.4463C89.9807 17.6525 90.46 17.7557 90.9442 17.7477Z" fill="#00D481"/>
<path d="M109.328 13.887V14.1886C109.328 14.2829 109.32 14.377 109.306 14.4703H100.331C100.393 15.3294 100.748 16.1435 101.339 16.7826C101.902 17.3592 102.678 17.6474 103.666 17.6471C104.447 17.6471 105.072 17.4762 105.54 17.1344C106.04 16.7485 106.424 16.2378 106.651 15.6563L109.018 15.9782C108.864 16.5598 108.613 17.1132 108.278 17.617C107.95 18.1043 107.539 18.5329 107.063 18.8837C106.56 19.2501 105.996 19.529 105.396 19.7081C104.722 19.9083 104.021 20.0066 103.316 19.9996C102.521 20.0047 101.732 19.8648 100.99 19.5872C100.279 19.3229 99.6342 18.9152 99.0963 18.3908C98.5429 17.8411 98.1088 17.188 97.8201 16.4705C97.4918 15.6475 97.331 14.7698 97.3467 13.8866C97.3361 13.0308 97.4934 12.181 97.81 11.383C98.0926 10.6649 98.5235 10.0113 99.076 9.46299C99.6285 8.9147 100.291 8.48346 101.021 8.19615C101.776 7.89737 102.584 7.74704 103.399 7.75376C104.288 7.735 105.173 7.89935 105.993 8.23612C106.701 8.53481 107.333 8.98103 107.845 9.54349C108.348 10.1087 108.727 10.7692 108.957 11.4837C109.209 12.2607 109.334 13.0718 109.328 13.887ZM106.631 12.6606C106.507 11.9102 106.155 11.2133 105.622 10.66C105.348 10.3917 105.02 10.1824 104.658 10.0456C104.296 9.90877 103.909 9.84744 103.522 9.86555C102.617 9.86555 101.906 10.1304 101.391 10.66C100.863 11.2159 100.516 11.9121 100.393 12.6606H106.631Z" fill="#00D481"/>
<path d="M111.182 16.416C111.661 16.4139 112.122 16.5942 112.467 16.9186C112.631 17.0743 112.763 17.2593 112.856 17.4634C112.951 17.6736 113 17.9009 113 18.1306C113 18.3604 112.951 18.5876 112.856 18.7978C112.764 19.0024 112.631 19.1875 112.467 19.3427C112.121 19.6652 111.661 19.8452 111.183 19.8452C110.705 19.8452 110.245 19.6652 109.9 19.3427C109.735 19.1874 109.602 19.0024 109.509 18.7978C109.415 18.5875 109.366 18.3603 109.366 18.1306C109.366 17.9009 109.415 17.6738 109.509 17.4634C109.655 17.1495 109.89 16.8836 110.187 16.6977C110.484 16.5118 110.83 16.414 111.182 16.416ZM111.178 19.5621C111.38 19.5634 111.581 19.5251 111.767 19.4492C111.946 19.3771 112.109 19.2732 112.248 19.1426C112.386 19.014 112.497 18.8599 112.573 18.6894C112.651 18.514 112.691 18.3249 112.691 18.1339C112.691 17.9428 112.651 17.7538 112.573 17.5783C112.497 17.4078 112.386 17.2537 112.248 17.1249C112.109 16.9945 111.946 16.8906 111.767 16.8185C111.39 16.6679 110.967 16.6679 110.59 16.8185C110.412 16.8909 110.248 16.9948 110.108 17.1249C109.971 17.2537 109.86 17.4078 109.783 17.5783C109.706 17.7538 109.666 17.9428 109.666 18.1339C109.666 18.3249 109.706 18.514 109.783 18.6894C109.86 18.8599 109.97 19.0139 110.108 19.1426C110.248 19.2728 110.411 19.3768 110.589 19.4492C110.776 19.5252 110.976 19.5636 111.178 19.5621ZM112.107 19.0681H111.632L111.209 18.4171H110.812V19.0681H110.407V17.1228H111.309C111.406 17.1214 111.503 17.1388 111.594 17.174C111.676 17.205 111.75 17.2528 111.812 17.3144C111.872 17.3743 111.92 17.445 111.952 17.5225C111.986 17.6051 112.003 17.6934 112.002 17.7823C112.003 17.9072 111.967 18.0297 111.896 18.1337C111.825 18.2378 111.724 18.3185 111.605 18.3652L112.107 19.0681ZM110.812 18.1146H111.275C111.323 18.1155 111.37 18.1046 111.412 18.0827C111.451 18.0618 111.485 18.0335 111.512 17.9995C111.54 17.9659 111.562 17.9277 111.576 17.8868C111.59 17.8479 111.598 17.8069 111.599 17.7655C111.598 17.7239 111.59 17.6827 111.574 17.6441C111.542 17.5609 111.478 17.4931 111.395 17.4547C111.351 17.4342 111.302 17.4241 111.253 17.4249H110.812V18.1146Z" fill="#00D481"/>
</svg>
